<?xml version="1.0"?>
<svg width="450" height="100" xmlns="http://www.w3.org/2000/svg" xmlns:svg="http://www.w3.org/2000/svg">
 <g class="layer">
  <title>Layer 1</title>
  <path d="m226.41,21.98l5.1,0l0,2.56c-1.92,0 -3.59,0.65 -5.01,1.95c-1.36,1.3 -2.47,3.71 -3.31,7.23l-11.91,43.6l-0.16,0.68l-10.21,0l-10.37,-38.08l-10.2,37.4l-0.16,0.68l-10.21,0l-13.09,-47.94c-0.28,-1.08 -0.79,-2.04 -1.53,-2.89c-0.73,-0.85 -1.61,-1.5 -2.63,-1.96c-0.96,-0.45 -2.01,-0.67 -3.15,-0.67l0,-2.56l20.4,0l0,2.56c-1.01,0 -1.84,0.39 -2.46,1.19c-0.62,0.79 -0.79,1.67 -0.51,2.63l11.99,44.11l10.2,-37.39l-1.37,-5.02c-0.28,-1.08 -0.79,-2.04 -1.53,-2.89c-0.67,-0.85 -1.53,-1.5 -2.54,-1.96c-1.03,-0.45 -2.1,-0.67 -3.24,-0.67l0,-2.56l20.4,0l0,2.56c-1.01,0 -1.84,0.39 -2.46,1.19c-0.57,0.79 -0.74,1.67 -0.51,2.63l12.07,44.11l11.22,-41.39c0.45,-1.64 0.14,-3.15 -0.94,-4.51c-1.01,-1.36 -2.38,-2.03 -4.07,-2.03l0,-2.56l10.19,0zm20.9,15.3c5.38,0 10.03,1.85 13.94,5.53c3.91,3.68 6.03,8.19 6.37,13.52l0,0.16c0,0.68 -0.22,1.25 -0.68,1.71c-0.45,0.45 -1.02,0.68 -1.7,0.68l-25.24,0c-0.85,0 -1.53,0.31 -2.04,0.93c-0.51,0.62 -0.68,1.33 -0.51,2.13c0.51,2.72 1.44,5.18 2.8,7.39c1.36,2.15 3.12,3.83 5.27,5.01c2.16,1.19 4.45,1.56 6.89,1.11c1.64,-0.28 3.2,-0.76 4.67,-1.45c1.53,-0.73 2.89,-1.67 4.08,-2.8c1.25,-1.13 2.3,-2.41 3.15,-3.82c-0.28,0 -0.57,-0.03 -0.85,-0.09c-0.28,-0.11 -0.51,-0.28 -0.68,-0.51c-0.17,-0.23 -0.31,-0.48 -0.43,-0.76c-0.28,-0.97 0.06,-1.68 1.02,-2.13c0.74,-0.23 1.36,-0.14 1.87,0.25c0.57,0.34 0.83,1.03 0.77,2.05c-0.06,0.96 -0.51,2.06 -1.36,3.31c-3.85,5.67 -9.63,8.5 -17.34,8.5c-5.67,0 -10.48,-1.98 -14.45,-5.95c-3.97,-3.97 -5.95,-8.75 -5.95,-14.36c0,-5.67 1.98,-10.49 5.95,-14.46c3.97,-3.96 8.78,-5.95 14.45,-5.95zm7.39,19.05c0.74,0 1.36,-0.29 1.87,-0.85c0.51,-0.63 0.71,-1.31 0.6,-2.04c-0.51,-3.97 -1.7,-7.23 -3.57,-9.78c-1.81,-2.61 -3.91,-3.91 -6.29,-3.91c-1.59,0 -3.09,0.59 -4.51,1.78c-1.36,1.2 -2.52,2.84 -3.48,4.94c-0.96,2.04 -1.62,4.36 -1.96,6.97c-0.11,0.73 0.09,1.41 0.6,2.04c0.51,0.56 1.16,0.85 1.95,0.85l14.79,0zm46.88,-34.35c4.19,0 7.76,1.51 10.71,4.51c3,2.95 4.5,6.54 4.5,10.79c0,4.2 -1.5,7.8 -4.5,10.8c-2.95,2.95 -6.52,4.42 -10.71,4.42l-15.3,0l0,17.85c0,1.42 0.48,2.63 1.44,3.65c1.02,0.97 2.24,1.45 3.66,1.45l0,2.55l-20.4,0l0,-2.55c1.41,0 2.6,-0.48 3.57,-1.45c1.02,-1.02 1.53,-2.23 1.53,-3.65l0,-40.71c0,-1.42 -0.51,-2.61 -1.53,-3.57c-0.97,-1.02 -2.16,-1.53 -3.57,-1.53l0,-2.56l30.6,0zm-5.1,27.97c2.77,0 5.15,-1.22 7.14,-3.65c2.04,-2.5 3.06,-5.5 3.06,-9.02c0,-3.56 -1.02,-6.57 -3.06,-9.01c-1.99,-2.49 -4.37,-3.73 -7.14,-3.73l-5.1,0c-1.42,0 -2.64,0.51 -3.66,1.53c-0.96,0.96 -1.44,2.15 -1.44,3.57l0,15.21c0,1.42 0.48,2.63 1.44,3.66c1.02,0.96 2.24,1.44 3.66,1.44l5.1,0zm40.89,-12.67c5.39,0 10.03,1.85 13.94,5.53c3.91,3.68 6.04,8.19 6.38,13.52l0,0.16c0,0.68 -0.23,1.25 -0.68,1.71c-0.46,0.45 -1.02,0.68 -1.7,0.68l-25.25,0c-0.85,0 -1.53,0.31 -2.04,0.93c-0.51,0.62 -0.68,1.33 -0.51,2.13c0.51,2.72 1.45,5.18 2.81,7.39c1.36,2.15 3.11,3.83 5.27,5.01c2.15,1.19 4.45,1.56 6.88,1.11c1.65,-0.28 3.2,-0.76 4.68,-1.45c1.53,-0.73 2.89,-1.67 4.08,-2.8c1.24,-1.13 2.29,-2.41 3.14,-3.82c-0.28,0 -0.56,-0.03 -0.85,-0.09c-0.28,-0.11 -0.51,-0.28 -0.68,-0.51c-0.17,-0.23 -0.31,-0.48 -0.42,-0.76c-0.29,-0.97 0.05,-1.68 1.02,-2.13c0.73,-0.23 1.36,-0.14 1.87,0.25c0.56,0.34 0.82,1.03 0.76,2.05c-0.05,0.96 -0.51,2.06 -1.36,3.31c-3.85,5.67 -9.63,8.5 -17.34,8.5c-5.66,0 -10.48,-1.98 -14.45,-5.95c-3.96,-3.97 -5.95,-8.75 -5.95,-14.36c0,-5.67 1.99,-10.49 5.95,-14.46c3.97,-3.96 8.79,-5.95 14.45,-5.95zm7.4,19.05c0.73,0 1.36,-0.29 1.87,-0.85c0.51,-0.63 0.71,-1.31 0.59,-2.04c-0.51,-3.97 -1.7,-7.23 -3.57,-9.78c-1.81,-2.61 -3.91,-3.91 -6.29,-3.91c-1.58,0 -3.09,0.59 -4.5,1.78c-1.36,1.2 -2.52,2.84 -3.49,4.94c-0.96,2.04 -1.61,4.36 -1.95,6.97c-0.12,0.73 0.08,1.41 0.59,2.04c0.51,0.56 1.16,0.85 1.96,0.85l14.79,0zm54.43,16.57l0.94,0.93c-0.57,1.76 -1.7,3.01 -3.4,3.75c-0.74,0.28 -1.5,0.42 -2.3,0.42c-2.09,0 -3.74,-0.85 -4.93,-2.55c-1.19,0.74 -2.46,1.27 -3.82,1.61c-3.63,0.91 -7.56,1.17 -11.81,0.77c-4.25,-0.4 -7.34,-1.42 -9.27,-3.06c-1.19,-1.02 -2.04,-2.24 -2.55,-3.66c-0.45,-1.41 -0.51,-2.97 -0.17,-4.67c0.4,-1.7 1.19,-3.37 2.38,-5.02c1.25,-1.69 3.12,-3.34 5.61,-4.93c2.49,-1.58 5.5,-2.91 9.01,-3.99c0.51,-0.11 1.05,-0.23 1.61,-0.34c0.57,-0.17 1.05,-0.31 1.45,-0.43c0.4,-0.11 0.79,-0.22 1.19,-0.33c0.4,-0.12 0.74,-0.2 1.02,-0.26c1.59,-0.79 2.38,-2.07 2.38,-3.83c0,-1.64 -0.45,-3.14 -1.36,-4.5c-0.91,-1.42 -2.1,-2.47 -3.57,-3.15c-0.85,-0.28 -2.04,-0.48 -3.57,-0.59c-1.53,-0.11 -3.26,0.11 -5.18,0.68c-1.87,0.57 -3.26,1.53 -4.17,2.89c1.02,0.23 1.87,0.77 2.55,1.62c0.68,0.79 1.02,1.69 1.02,2.72c0,1.24 -0.45,2.32 -1.36,3.22c-0.85,0.85 -1.9,1.28 -3.15,1.28c-1.75,0 -3.06,-0.74 -3.9,-2.21c-0.8,-1.47 -0.91,-3.03 -0.35,-4.68c0.51,-1.41 1.37,-2.63 2.56,-3.65c1.19,-1.08 2.55,-1.84 4.07,-2.29c1.59,-0.52 3.06,-0.85 4.43,-1.02c1.41,-0.23 2.86,-0.35 4.33,-0.35c4.93,0 9.12,1.25 12.58,3.74c3.51,2.44 5.27,5.42 5.27,8.93l0,22.02c0,0.56 0.11,1.07 0.34,1.53c0.28,0.39 0.6,0.59 0.93,0.59c0.57,0 0.97,-0.4 1.19,-1.19zm-12.66,-7.65l0,-11.05c0,-0.4 -0.17,-0.71 -0.51,-0.93c-0.34,-0.29 -0.71,-0.37 -1.1,-0.26c-2.38,0.68 -4.4,1.36 -6.04,2.04c-1.19,0.51 -2.27,1.16 -3.23,1.96c-0.91,0.79 -1.64,1.61 -2.21,2.46c-0.51,0.85 -0.96,1.79 -1.36,2.8c-0.34,0.97 -0.57,1.87 -0.68,2.73c-0.11,0.79 -0.17,1.58 -0.17,2.38c0,2.66 0.71,4.67 2.13,6.03c1.41,1.36 3.25,2.04 5.52,2.04c2.1,0 3.88,-0.99 5.36,-2.98c1.52,-1.98 2.29,-4.39 2.29,-7.22zm61.89,-24.56c0,0.51 -0.08,0.96 -0.25,1.36c-0.18,0.39 -0.43,0.76 -0.77,1.1c-0.28,0.28 -0.65,0.54 -1.1,0.76c-0.4,0.18 -0.83,0.26 -1.28,0.26l0,-0.08c0,-0.63 -0.31,-1.05 -0.93,-1.28c-0.57,-0.23 -1.08,-0.11 -1.54,0.34l-14.44,14.45l10.7,12.32c1.82,2.05 3.35,3.49 4.6,4.34c1.24,0.79 2.91,1.19 5.01,1.19l0,2.55l-16.06,0l-2.22,-2.55l-9.26,-10.62l-2.97,2.97l0,2.55c0,1.42 0.48,2.63 1.44,3.65c1.02,0.97 2.24,1.45 3.65,1.45l0,2.55l-20.39,0l0,-2.55c1.41,0 2.6,-0.48 3.57,-1.45c1.01,-1.02 1.55,-2.23 1.61,-3.65l0,-38.16l-5.18,0l0,-2.55c0.22,0 0.56,-0.03 1.01,-0.09c0.46,-0.06 1.28,-0.25 2.47,-0.6c1.25,-0.39 2.41,-0.9 3.48,-1.52c1.14,-0.63 2.36,-1.65 3.66,-3.07c1.36,-1.41 2.49,-3.06 3.4,-4.93l1.28,0l0,44.71l1.27,-1.19l22.36,-22.43l2.12,-1.96c0.91,-0.85 1.93,-1.02 3.06,-0.51c1.13,0.45 1.7,1.33 1.7,2.64z" fill="#3f7f00" id="svg_1"/>
  <path d="m34.15,92.29c8.78,4.38 16.71,6.62 26.68,7.55c3.33,0.31 11.05,0.14 14.83,-0.32c11.41,-1.41 22.14,-5.49 31.99,-12.16c4.19,-2.84 4.7,-3.31 3.91,-3.62c-0.88,-0.33 -11.61,0.12 -15.52,0.65c-2.01,0.28 -7.41,1.26 -12.02,2.18c-10.68,2.14 -13.35,2.47 -20.22,2.49c-5.98,0.01 -9.31,-0.35 -14.26,-1.57c-12.81,-3.14 -21.84,-9.54 -26.41,-18.71c-2.08,-4.18 -2.87,-7.47 -2.87,-12.09c-0.01,-8.13 4.57,-16.82 10.87,-20.62c2.49,-1.51 3.87,-1.84 7.1,-1.71c3.23,0.14 5.45,0.99 7.6,2.94c3.4,3.07 4.1,8.46 1.55,11.99c-1.09,1.5 -1.1,1.56 -0.2,1.57c1.45,0 3.82,-1.14 5.43,-2.6c4.15,-3.79 4.98,-9.89 2.1,-15.58c-1.28,-2.53 -4.55,-5.55 -7.65,-7.07c-3.31,-1.62 -5.59,-2.21 -9.34,-2.44c-5.16,-0.31 -10.77,1.26 -15.5,4.33c-3.41,2.22 -6.96,5.95 -12.73,13.37c-2.73,3.52 -6.15,7.86 -7.59,9.65c-2.4,5 -2.39,5.02 -0.72,8.52l0.02,0.04c3.14,6.6 7.7,13.14 12.96,18.58c6.36,6.57 11.77,10.53 19.99,14.63z" fill="#3f7f00" id="svg_2"/>
  <path d="m33.7,70.94c5.31,5.59 14.33,9.42 24.63,10.47c3.81,0.39 11.14,0.18 15.14,-0.43c1.72,-0.27 6.63,-1.18 10.93,-2.02c12.25,-2.42 14.05,-2.64 22,-2.65c6.24,-0.02 10.07,0.28 12.23,0.94c0.7,0.22 2.77,-1.99 6.25,-6.67c2.99,-4 4.7,-4.77 3.59,-5.88c-0.54,-0.53 -8.47,-0.7 -12.55,-0.53c-8.47,0.34 -15.06,1.43 -27.47,4.52c-10.59,2.64 -15.33,3.42 -22.16,3.62c-9.72,0.28 -16.43,-1.29 -21.88,-5.11c-6.42,-4.5 -8.88,-11.7 -5.99,-17.5c0.77,-1.53 2.46,-3.12 3.64,-3.42c0.64,-0.17 0.71,-0.33 0.56,-1.28c-0.65,-4.03 -6.42,-4.32 -10.3,-0.5c-3.02,2.97 -4.28,6.06 -4.49,11.04c-0.27,6.04 1.58,10.89 5.87,15.4z" fill="#3f7f00" id="svg_3"/>
  <path d="m115.19,47.96c1.87,2.44 3.71,4.65 4.08,4.91c1.57,1.1 3.98,0.18 3.98,-1.51c0,-0.74 -3.77,-5.87 -14.04,-19.08c-6.16,-7.93 -6.78,-8.58 -8.2,-8.58c-1.29,0 -2.03,0.74 -5.38,5.39c-1.2,1.66 -2.32,3.03 -2.5,3.03c-0.17,0 -0.73,-0.6 -1.24,-1.32c-0.51,-0.73 -3.11,-4.27 -5.79,-7.88c-2.68,-3.6 -7.43,-10.03 -10.56,-14.27c-3.13,-4.25 -6,-7.94 -6.37,-8.2c-0.9,-0.63 -2.5,-0.59 -3.32,0.08c-0.36,0.3 -2.59,3.17 -4.95,6.39c-2.35,3.22 -5.53,7.54 -7.05,9.6c-2.33,3.18 -2.7,3.83 -2.36,4.24c0.21,0.26 1.57,1.32 3,2.36l2.61,1.88l0.9,-0.96c0.49,-0.53 1.04,-0.96 1.2,-0.96c0.64,0 1.68,1.25 5.68,6.86c2.26,3.18 4.23,5.82 4.37,5.87c0.14,0.05 1.92,-2.26 3.96,-5.15c4.07,-5.78 5.28,-7.27 5.87,-7.27c0.79,0 2.09,1.37 5.11,5.4c1.7,2.26 5.52,7.28 8.49,11.14c2.97,3.86 6.23,8.11 7.24,9.44c1.02,1.33 1.96,2.42 2.09,2.42c0.13,0 0.86,-0.86 1.61,-1.91c5.33,-7.43 6.14,-8.17 7.52,-6.93c0.36,0.31 2.17,2.57 4.05,5.01z" fill="#3f7f00" id="svg_4"/>
 </g>
</svg>